<svg width="113" height="103" viewBox="0 0 113 103" fill="none" xmlns="http://www.w3.org/2000/svg">
<g filter="url(#filter0_d)">
<path d="M19.1607 65.5423C13.3029 59.6844 13.3028 50.1869 19.1607 44.3291L44.7138 18.7759C50.5717 12.9181 60.0692 12.9181 65.927 18.7759L70.3751 23.224C76.7391 29.588 76.1152 40.1228 69.2298 46.0046C65.3795 49.2937 61.381 52.849 58.1861 56.0092C54.446 59.7086 50.2117 64.4448 46.3971 68.8965C40.5133 75.7631 29.9905 76.372 23.6345 70.016L19.1607 65.5423Z" stroke="#2E3A59" stroke-width="2"/>
<path d="M17.1362 63.2873C11.7662 57.9174 11.2645 49.4046 16.1269 43.6212C20.5091 38.409 25.7879 32.3754 30.3021 27.9102C34.2798 23.9757 39.5538 19.3897 44.2348 15.4712C50.0198 10.6285 58.5205 11.1389 63.8823 16.5008L64.2826 16.9011C70.6467 23.2652 70.0228 33.7999 63.1374 39.6817C59.2871 42.9708 55.2886 46.5262 52.0937 49.6863C48.3536 53.3858 44.1192 58.1219 40.3046 62.5737C34.4209 69.4402 23.898 70.0492 17.542 63.6932L17.1362 63.2873Z" stroke="#2E3A59" stroke-width="2"/>
<rect x="38.1523" y="30.7675" width="15.6653" height="15.6653" rx="7.83265" transform="rotate(-45 38.1523 30.7675)" stroke="#2E3A59" stroke-width="2"/>
<rect x="73.5" y="67.9999" width="26" height="22" rx="1" stroke="#2E3A59" stroke-width="2"/>
<path d="M75.5 44.9994C82.5 46.9994 86.5 49.9999 86.5002 60.999" stroke="#2E3A59" stroke-width="2"/>
</g>
<defs>
<filter id="filter0_d" x="0.615234" y="6.10352e-05" width="111.885" height="103" filterUnits="userSpaceOnUse" color-interpolation-filters="sRGB">
<feFlood flood-opacity="0" result="BackgroundImageFix"/>
<feColorMatrix in="SourceAlpha" type="matrix" values="0 0 0 0 0 0 0 0 0 0 0 0 0 0 0 0 0 0 127 0"/>
<feOffset dx="4" dy="4"/>
<feGaussianBlur stdDeviation="4"/>
<feColorMatrix type="matrix" values="0 0 0 0 0.65098 0 0 0 0 0.670588 0 0 0 0 0.741176 0 0 0 1 0"/>
<feBlend mode="normal" in2="BackgroundImageFix" result="effect1_dropShadow"/>
<feBlend mode="normal" in="SourceGraphic" in2="effect1_dropShadow" result="shape"/>
</filter>
</defs>
</svg>
