<svg width="40" height="26" viewBox="0 0 40 26" fill="none" xmlns="http://www.w3.org/2000/svg">
<path d="M19.4804 16.5425C19.4804 21.7657 15.1319 26 9.76674 26C4.40157 26 0.507458 21.9116 0.0531052 16.7069C-0.640556 8.76502 5.55625 2.11552 13.0795 0C10.5151 1.50963 8.72625 4.13515 8.42795 7.18869C8.86708 7.12801 9.31144 7.08493 9.76674 7.08493C15.1319 7.08493 19.4804 11.3187 19.4804 16.5425Z" fill="#E7EBF0"/>
<path d="M40.0001 16.5425C40.0001 21.7657 35.6517 26 30.286 26C24.9213 26 21.0267 21.9116 20.5719 16.7069C19.8782 8.76502 26.075 2.11552 33.5987 0C31.0344 1.50963 29.246 4.13515 28.9472 7.18869C29.3863 7.12801 29.8312 7.08493 30.286 7.08493C35.6517 7.08493 40.0001 11.3187 40.0001 16.5425Z" fill="#E7EBF0"/>
</svg>
